<svg width="44" height="44" viewBox="0 0 44 44" fill="none" xmlns="http://www.w3.org/2000/svg">
<path d="M20.4416 6.23333L13.6216 17.38C12.87 18.59 13.75 20.1667 15.18 20.1667H28.8016C30.2316 20.1667 31.1116 18.59 30.36 17.38L23.5583 6.23333C23.3962 5.96499 23.1676 5.74305 22.8946 5.589C22.6216 5.43495 22.3135 5.354 22 5.354C21.6865 5.354 21.3783 5.43495 21.1053 5.589C20.8323 5.74305 20.6037 5.96499 20.4416 6.23333Z" fill="#034744"/>
<path d="M32.0833 40.3334C36.6397 40.3334 40.3333 36.6397 40.3333 32.0834C40.3333 27.527 36.6397 23.8334 32.0833 23.8334C27.527 23.8334 23.8333 27.527 23.8333 32.0834C23.8333 36.6397 27.527 40.3334 32.0833 40.3334Z" fill="#034744"/>
<path d="M7.33333 39.4167H18.3333C19.3417 39.4167 20.1667 38.5917 20.1667 37.5833V26.5833C20.1667 25.575 19.3417 24.75 18.3333 24.75H7.33333C6.325 24.75 5.5 25.575 5.5 26.5833V37.5833C5.5 38.5917 6.325 39.4167 7.33333 39.4167Z" fill="#034744"/>
</svg>
