<svg width="72" height="72" viewBox="0 0 72 72" fill="none" xmlns="http://www.w3.org/2000/svg">
<path d="M15.75 18H27V22.5H15.75V18ZM15.75 27H27V31.5H15.75V27ZM15.75 36H27V40.5H15.75V36ZM45 18H56.25V22.5H45V18ZM45 27H56.25V31.5H45V27ZM45 36H56.25V40.5H45V36Z" fill="#087672"/>
<path d="M63 9H9C7.80653 9 6.66193 9.47411 5.81802 10.318C4.97411 11.1619 4.5 12.3065 4.5 13.5V63C4.5 64.1935 4.97411 65.3381 5.81802 66.182C6.66193 67.0259 7.80653 67.5 9 67.5H63C64.1935 67.5 65.3381 67.0259 66.182 66.182C67.0259 65.3381 67.5 64.1935 67.5 63V13.5C67.5 12.3065 67.0259 11.1619 66.182 10.318C65.3381 9.47411 64.1935 9 63 9ZM9 13.5H33.75V63H9V13.5ZM38.25 63V13.5H63V63H38.25Z" fill="#087672"/>
</svg>
