<svg width="74" height="74" viewBox="0 0 74 74" fill="none" xmlns="http://www.w3.org/2000/svg">
<path d="M69.375 22.9263C69.375 21.2151 68.709 19.6148 67.5019 18.4077L55.5462 6.43818C53.132 4.0193 48.9279 4.0193 46.5136 6.43818L37 15.9657V15.3691C37 11.7986 34.0955 8.88943 30.525 8.88943H11.1C7.5295 8.88943 4.625 11.7986 4.625 15.3691V62.9002C4.625 66.4614 7.5295 69.3752 11.1 69.3752H58.5849C62.1507 69.3752 65.0599 66.466 65.0599 62.8955V43.4521C65.0599 39.8816 62.1507 36.9724 58.5849 36.9724H57.9836L67.5019 27.4496C68.7044 26.2471 69.375 24.6329 69.375 22.9263ZM11.1 13.2046H30.525C31.7136 13.2046 32.6849 14.1758 32.6849 15.3644V36.9678H8.94012V15.3691C8.94012 14.1712 9.91138 13.2046 11.1 13.2046ZM8.94012 62.8909V41.2922H32.6849V65.0508H11.1C10.5283 65.0472 9.98103 64.8184 9.57676 64.4142C9.17249 64.0099 8.94376 63.4626 8.94012 62.8909ZM60.7401 43.4474V62.8909C60.7401 64.0795 59.7689 65.0508 58.5849 65.0508H37V41.2876H58.5849C59.7689 41.2876 60.7401 42.2588 60.7401 43.4474ZM37 36.9678V29.8916L44.0716 36.9678H37ZM64.4494 24.3878L52.4891 36.3666C52.0961 36.7455 51.5713 36.9573 51.0253 36.9573C50.4793 36.9573 49.9546 36.7455 49.5615 36.3666L37.6012 24.3832C37.4083 24.1918 37.2551 23.9642 37.1506 23.7133C37.046 23.4625 36.9922 23.1934 36.9922 22.9217C36.9922 22.6499 37.046 22.3809 37.1506 22.13C37.2551 21.8792 37.4083 21.6515 37.6012 21.4602L49.5615 9.49068C49.7526 9.29644 49.9804 9.14218 50.2318 9.03689C50.4831 8.93159 50.7528 8.87736 51.0253 8.87736C51.2978 8.87736 51.5676 8.93159 51.8189 9.03689C52.0702 9.14218 52.298 9.29644 52.4891 9.49068L64.4494 21.4602C64.6424 21.6515 64.7955 21.8792 64.9 22.13C65.0046 22.3809 65.0584 22.6499 65.0584 22.9217C65.0584 23.1934 65.0046 23.4625 64.9 23.7133C64.7955 23.9642 64.6424 24.1965 64.4494 24.3878Z" fill="white"/>
</svg>
