<svg width="183" height="32" viewBox="0 0 183 32" fill="none" xmlns="http://www.w3.org/2000/svg">
<g clip-path="url(#clip0_43_250)">
<path d="M178.667 8.21069C182.855 8.81602 183.983 14.6877 180.01 16.2096L179.858 16.6398C184.055 17.4484 183.918 23.3913 180.226 24.9003C179.927 25.0236 178.219 25.5057 178.017 25.5057H164.05V8.21069H178.667ZM168.381 14.9125H175.852C179.33 14.9125 177.887 11.6697 176.935 11.6697H168.381V14.9125ZM168.381 21.8305H177.368C178.899 21.8305 178.84 18.1553 176.935 18.1553H168.381V21.8305Z" fill="white"/>
<path d="M67.5794 8.21069L76.7804 20.5334L76.566 8.21069H80.8969V25.5057H75.375L65.9553 13.183V25.1814L65.6304 25.5057H62.1657L61.8409 25.1814V8.53497L62.1657 8.21069H67.5794Z" fill="white"/>
<path d="M59.0258 8.21069V11.5616C58.8374 11.8686 58.5927 11.8599 58.2788 11.8967C53.8656 12.4155 45.2103 9.63969 44.9482 16.3285C44.7057 22.5158 49.9894 22.0099 54.5563 21.8002L54.9115 18.9141L54.5867 18.3736H50.5806V15.347H59.0258V25.2916C54.7361 25.1727 47.5533 26.6212 43.8828 24.0875C39.4935 21.0608 39.212 12.8933 43.545 9.72616C43.9954 9.39756 46.6265 8.21286 47.0098 8.21286H59.028L59.0258 8.21069Z" fill="white"/>
<path d="M88.2594 8.21069V15.1287L90.3317 14.9276L96.1633 8.21069H101.685L94.1234 16.7198L102.118 25.5057H96.3798L90.3296 18.5747L88.2594 18.3715V25.1814L87.9346 25.5057H84.0368L83.7119 25.1814V8.21069H88.2594Z" fill="white"/>
<path d="M146.943 8.21069V18.912C146.943 22.892 156.904 22.9957 156.904 18.912V8.21069H161.235V19.7767C161.235 20.7495 159.955 23.0908 159.178 23.7762C155.601 26.9238 142.612 26.4785 142.612 19.9929V8.21069H146.943Z" fill="white"/>
<path d="M125.722 8.21069V11.5616C125.533 11.8686 125.289 11.8599 124.975 11.8967C119.946 12.489 111.807 9.44728 113.002 17.991C113.201 19.407 114.481 21.6143 116.085 21.6143H125.722V25.1814L125.397 25.5057H115.652C107.768 25.5057 105.89 12.4328 112.227 9.11436C112.571 8.93492 114.541 8.21069 114.786 8.21069H125.722Z" fill="white"/>
<path d="M105.126 25.7067C106.212 25.7067 107.092 24.8279 107.092 23.7437C107.092 22.6596 106.212 21.7808 105.126 21.7808C104.04 21.7808 103.16 22.6596 103.16 23.7437C103.16 24.8279 104.04 25.7067 105.126 25.7067Z" fill="white"/>
<path d="M132.001 8.21069V19.7767C132.001 20.2847 133.065 21.6143 133.626 21.6143H141.421L141.529 25.5057H132.543C131.696 25.5057 129.674 24.5458 129.05 23.9124C128.66 23.5167 127.671 21.7462 127.671 21.29V8.21069H132.001Z" fill="white"/>
<path d="M1.22348 8.87669L3.58815 7.65308L4.24212 7.6574L7.39718 14.0522L4.23995 15.252L1.22348 8.87669Z" fill="white"/>
<path d="M6.18452 22.2629L0 19.0223L1.22564 16.0086C1.7237 15.6908 6.73238 18.6612 7.61372 19.0179L6.18452 22.2629Z" fill="white"/>
<path d="M11.1434 2.6136C11.5592 3.1692 10.1386 8.64954 10.0867 9.72399L6.82983 8.96301L7.9537 2.18555L11.1456 2.6136H11.1434Z" fill="#BEDBDA"/>
<path d="M27.3886 6.02733C27.2002 6.31486 21.1673 8.05733 20.8121 8.00545C20.1582 7.90816 19.1621 5.4112 19.9763 5.00477C20.5046 4.69346 25.8035 2.94667 26.2149 3.01153C26.9035 3.11746 27.3821 5.32689 27.3886 6.02733Z" fill="#72ACAA"/>
<path d="M10.7168 22.9287L11.1412 26.1261L4.26376 27.2092L3.80035 24.094L10.7168 22.9287Z" fill="white"/>
<path d="M25.7775 8.47876L32.2999 10.8028L31.0915 13.5224L24.8052 11.5659C24.2834 11.1292 25.4722 8.52416 25.7797 8.47876H25.7775Z" fill="#72ACAA"/>
<path d="M17.3409 0L19.5973 2.45156C17.9884 3.88056 16.5527 6.32563 14.5713 7.09958L12.7653 4.74747L17.3409 0Z" fill="#BEDBDA"/>
<path d="M16.7822 28.0762L11.9143 31.9978L9.6579 29.7127L14.6493 25.0885C15.2079 24.8528 16.8883 27.8881 16.7822 28.0762Z" fill="#279894"/>
<path d="M19.8334 24.641C19.9806 24.5091 22.8975 25.482 22.852 26.2516L20.3487 31.9438L17.5185 31.0293L19.8355 24.641H19.8334Z" fill="#279894"/>
<path d="M27.8433 28.0999L24.6905 28.1129L24.2206 21.7116L27.5034 21.5862C27.5618 21.6294 27.8455 22.9438 27.8455 23.0173V28.0977L27.8433 28.0999Z" fill="#279894"/>
<path d="M29.8161 21.8133L25.9334 16.5319L28.4215 14.7267C28.9477 14.6943 32.1309 19.5996 32.5813 20.4297L29.8161 21.8133Z" fill="#279894"/>
</g>
<defs>
<clipPath id="clip0_43_250">
<rect width="183" height="32" fill="white"/>
</clipPath>
</defs>
</svg>
