<svg width="35" height="35" viewBox="0 0 35 35" fill="none" xmlns="http://www.w3.org/2000/svg">
<path d="M17.5 3.28125C9.66 3.28125 3.28125 9.66 3.28125 17.5C3.28125 25.34 9.66 31.7188 17.5 31.7188C25.34 31.7188 31.7188 25.34 31.7188 17.5C31.7188 9.66 25.34 3.28125 17.5 3.28125ZM17.5 5.46875C24.1577 5.46875 29.5312 10.8423 29.5312 17.5C29.5312 24.1577 24.1577 29.5312 17.5 29.5312C10.8423 29.5312 5.46875 24.1577 5.46875 17.5C5.46875 10.8423 10.8423 5.46875 17.5 5.46875ZM16.4062 10.9375V16.4062H10.9375V18.5938H16.4062V24.0625H18.5938V18.5938H24.0625V16.4062H18.5938V10.9375H16.4062Z" fill="white"/>
</svg>
